<?xml version="1.0" encoding="UTF-8" ?>
<!DOCTYPE svg PUBLIC "-//W3C//DTD SVG 1.1//EN" "http://www.w3.org/Graphics/SVG/1.1/DTD/svg11.dtd">
<svg width="500pt" height="477pt" viewBox="0 0 500 477" version="1.1" xmlns="http://www.w3.org/2000/svg">
<g id="#fcc62aff">
<path fill="#fcc62a" opacity="1.00" d=" M 240.49 0.00 L 246.24 0.00 C 250.81 0.79 255.46 0.63 260.07 1.06 C 284.46 2.69 308.54 8.39 331.15 17.65 C 360.36 29.84 387.57 47.54 409.21 70.77 C 410.72 72.26 412.39 73.57 413.94 75.03 C 413.78 75.43 413.47 76.24 413.31 76.64 C 415.48 79.10 417.38 81.78 419.06 84.59 C 412.46 85.31 406.41 88.23 400.08 90.03 C 393.15 92.66 385.90 94.31 379.05 97.13 C 371.86 99.56 364.51 101.46 357.51 104.40 C 342.98 108.21 328.86 113.31 314.42 117.34 C 308.51 119.09 302.80 121.44 297.01 123.50 C 296.84 123.36 296.50 123.09 296.34 122.96 C 296.63 120.23 297.45 117.60 298.10 114.95 C 297.71 114.71 296.94 114.21 296.56 113.97 C 286.70 149.18 275.73 184.08 265.71 219.25 C 262.99 218.70 260.34 217.84 257.77 216.80 C 268.98 184.92 279.85 152.93 290.99 121.03 C 292.06 118.03 293.01 114.99 293.75 111.89 C 289.73 116.29 289.69 123.21 285.07 127.06 C 275.97 129.74 267.18 133.42 258.02 135.93 C 254.93 136.77 252.18 138.53 249.03 139.14 C 243.77 140.17 238.89 142.50 233.64 143.56 C 225.22 146.02 217.06 149.47 208.39 150.99 C 205.53 146.47 203.18 141.54 199.42 137.66 C 201.19 142.86 204.17 147.50 206.72 152.34 C 216.85 171.12 227.06 189.86 237.22 208.63 C 238.88 211.52 240.63 214.44 241.23 217.78 C 239.00 218.94 236.77 220.09 234.52 221.21 C 223.61 197.39 211.67 174.05 200.49 150.36 C 199.44 147.93 198.23 145.55 196.58 143.47 C 197.32 147.24 198.58 150.88 199.77 154.52 C 194.09 155.92 188.75 158.38 183.11 159.90 C 173.92 162.46 165.10 166.16 155.91 168.73 C 149.41 170.29 143.43 173.43 136.88 174.82 C 130.98 177.34 124.59 178.26 118.61 180.54 C 111.97 182.36 105.54 184.89 98.84 186.52 C 94.71 187.52 90.99 189.76 86.84 190.72 C 83.77 190.69 80.89 189.31 77.91 188.67 C 72.97 187.23 67.84 186.77 62.73 186.31 C 64.72 187.38 66.83 188.19 68.97 188.88 C 70.28 192.21 74.34 192.80 77.09 194.56 C 71.05 195.44 65.38 197.79 59.58 199.60 C 51.99 202.26 44.29 204.59 36.75 207.38 C 31.61 208.43 26.66 210.14 21.60 211.47 C 19.49 212.02 17.81 213.47 16.11 214.76 C 16.38 210.54 16.05 206.30 14.66 202.29 C 17.01 188.04 19.56 173.75 24.29 160.05 C 38.36 116.65 65.42 77.43 101.53 49.45 C 137.01 21.52 180.92 4.70 225.88 0.99 C 230.75 0.70 235.64 0.59 240.49 0.00 M 312.27 58.38 C 311.14 58.96 310.63 60.77 311.51 61.77 C 313.40 62.69 314.16 58.52 312.27 58.38 M 309.31 71.33 C 309.84 71.79 309.84 71.79 309.31 71.33 M 163.19 72.44 C 162.07 73.22 163.21 75.45 164.46 74.52 C 165.55 73.73 164.43 71.55 163.19 72.44 M 307.93 74.27 C 306.55 77.31 311.27 74.22 307.93 74.27 Z" />
<path fill="#fcc62a" opacity="1.00" d=" M 423.28 164.29 C 423.75 164.78 423.75 164.78 423.28 164.29 Z" />
<path fill="#fcc62a" opacity="1.00" d=" M 421.18 165.30 C 421.67 165.74 421.67 165.74 421.18 165.30 Z" />
<path fill="#fcc62a" opacity="1.00" d=" M 413.49 168.57 C 415.78 167.43 418.13 166.37 420.61 165.70 C 420.09 166.16 419.04 167.08 418.52 167.54 C 375.40 190.70 332.41 214.12 289.28 237.28 C 286.70 238.73 284.17 240.31 281.34 241.22 C 280.27 238.83 279.14 236.46 277.98 234.10 C 323.02 211.99 368.39 190.56 413.49 168.57 Z" />
<path fill="#fcc62a" opacity="1.00" d=" M 68.97 188.88 C 69.52 188.57 69.52 188.57 68.97 188.88 Z" />
<path fill="#fcc62a" opacity="1.00" d=" M 70.37 188.81 C 75.47 189.30 80.13 191.58 85.01 192.97 C 131.09 207.34 177.07 222.05 223.20 236.25 C 222.75 238.99 221.78 241.60 220.75 244.16 C 171.98 226.80 123.48 208.70 74.79 191.13 C 73.20 190.60 71.70 189.84 70.37 188.81 Z" />
<path fill="#fcc62a" opacity="1.00" d=" M 224.72 259.73 C 225.69 259.18 227.45 258.34 227.89 260.01 C 228.66 262.00 230.81 264.49 229.78 266.53 C 183.91 287.74 138.03 308.96 92.22 330.30 C 87.11 332.32 82.50 335.57 77.13 336.90 C 126.24 311.03 175.60 285.60 224.72 259.73 Z" />
</g>
<g id="#f2922eff">
<path fill="#f2922e" opacity="1.00" d=" M 312.27 58.38 C 314.16 58.52 313.40 62.69 311.51 61.77 C 310.63 60.77 311.14 58.96 312.27 58.38 Z" />
<path fill="#f2922e" opacity="1.00" d=" M 163.19 72.44 C 164.43 71.55 165.55 73.73 164.46 74.52 C 163.21 75.45 162.07 73.22 163.19 72.44 Z" />
<path fill="#f2922e" opacity="1.00" d=" M 413.94 75.03 C 416.67 78.91 419.71 82.56 422.83 86.13 C 442.24 109.77 456.74 137.45 465.06 166.90 C 424.86 186.68 384.73 206.59 344.59 226.49 C 326.15 235.28 308.10 244.88 289.62 253.58 C 246.93 274.98 203.97 295.83 161.29 317.26 C 144.17 325.38 127.34 334.10 110.35 342.46 C 92.74 350.61 75.76 360.05 58.09 368.07 C 29.35 328.93 13.04 280.60 13.09 231.99 C 13.33 226.04 13.22 220.06 13.61 214.13 C 14.59 210.24 14.15 206.22 14.66 202.29 C 16.05 206.30 16.38 210.54 16.11 214.76 C 17.81 213.47 19.49 212.02 21.60 211.47 C 26.66 210.14 31.61 208.43 36.75 207.38 C 44.29 204.59 51.99 202.26 59.58 199.60 C 65.38 197.79 71.05 195.44 77.09 194.56 C 74.34 192.80 70.28 192.21 68.97 188.88 C 69.52 188.57 69.52 188.57 68.97 188.88 C 66.83 188.19 64.72 187.38 62.73 186.31 C 67.84 186.77 72.97 187.23 77.91 188.67 C 80.89 189.31 83.77 190.69 86.84 190.72 C 90.99 189.76 94.71 187.52 98.84 186.52 C 105.54 184.89 111.97 182.36 118.61 180.54 C 124.59 178.26 130.98 177.34 136.88 174.82 C 143.43 173.43 149.41 170.29 155.91 168.73 C 165.10 166.16 173.92 162.46 183.11 159.90 C 188.75 158.38 194.09 155.92 199.77 154.52 C 198.58 150.88 197.32 147.24 196.58 143.47 C 198.23 145.55 199.44 147.93 200.49 150.36 C 211.67 174.05 223.61 197.39 234.52 221.21 C 236.77 220.09 239.00 218.94 241.23 217.78 C 240.63 214.44 238.88 211.52 237.22 208.63 C 227.06 189.86 216.85 171.12 206.72 152.34 C 204.17 147.50 201.19 142.86 199.42 137.66 C 203.18 141.54 205.53 146.47 208.39 150.99 C 217.06 149.47 225.22 146.02 233.64 143.56 C 238.89 142.50 243.77 140.17 249.03 139.14 C 252.18 138.53 254.93 136.77 258.02 135.93 C 267.18 133.42 275.97 129.74 285.07 127.06 C 289.69 123.21 289.73 116.29 293.75 111.89 C 293.01 114.99 292.06 118.03 290.99 121.03 C 279.85 152.93 268.98 184.92 257.77 216.80 C 260.34 217.84 262.99 218.70 265.71 219.25 C 275.73 184.08 286.70 149.18 296.56 113.97 C 296.94 114.21 297.71 114.71 298.10 114.95 C 297.45 117.60 296.63 120.23 296.34 122.96 C 296.50 123.09 296.84 123.36 297.01 123.50 C 302.80 121.44 308.51 119.09 314.42 117.34 C 328.86 113.31 342.98 108.21 357.51 104.40 C 364.51 101.46 371.86 99.56 379.05 97.13 C 385.90 94.31 393.15 92.66 400.08 90.03 C 406.41 88.23 412.46 85.31 419.06 84.59 C 417.38 81.78 415.48 79.10 413.31 76.64 C 413.47 76.24 413.78 75.43 413.94 75.03 M 423.28 164.29 C 423.75 164.78 423.75 164.78 423.28 164.29 M 421.18 165.30 C 421.67 165.74 421.67 165.74 421.18 165.30 M 413.49 168.57 C 368.39 190.56 323.02 211.99 277.98 234.10 C 279.14 236.46 280.27 238.83 281.34 241.22 C 284.17 240.31 286.70 238.73 289.28 237.28 C 332.41 214.12 375.40 190.70 418.52 167.54 C 419.04 167.08 420.09 166.16 420.61 165.70 C 418.13 166.37 415.78 167.43 413.49 168.57 M 70.37 188.81 C 71.70 189.84 73.20 190.60 74.79 191.13 C 123.48 208.70 171.98 226.80 220.75 244.16 C 221.78 241.60 222.75 238.99 223.20 236.25 C 177.07 222.05 131.09 207.34 85.01 192.97 C 80.13 191.58 75.47 189.30 70.37 188.81 M 224.72 259.73 C 175.60 285.60 126.24 311.03 77.13 336.90 C 82.50 335.57 87.11 332.32 92.22 330.30 C 138.03 308.96 183.91 287.74 229.78 266.53 C 230.81 264.49 228.66 262.00 227.89 260.01 C 227.45 258.34 225.69 259.18 224.72 259.73 Z" />
</g>
<g id="#384167ff">
<path fill="#384167" opacity="1.00" d=" M 309.31 71.33 C 309.84 71.79 309.84 71.79 309.31 71.33 Z" />
<path fill="#384167" opacity="1.00" d=" M 307.93 74.27 C 311.27 74.22 306.55 77.31 307.93 74.27 Z" />
<path fill="#384167" opacity="1.00" d=" M 412.05 206.16 C 430.80 197.21 449.45 188.00 468.34 179.35 C 471.56 193.81 473.49 208.52 474.27 223.31 C 454.99 232.16 435.38 240.31 415.99 248.91 C 411.05 251.71 405.11 250.14 399.91 249.10 C 398.68 246.91 398.47 244.31 397.77 241.93 C 396.26 235.30 394.21 228.78 393.19 222.05 C 394.58 219.06 397.09 216.71 399.13 214.13 C 402.35 209.99 407.60 208.56 412.05 206.16 Z" />
<path fill="#384167" opacity="1.00" d=" M 376.53 223.69 C 380.44 223.16 384.83 222.57 388.47 224.47 C 391.18 232.46 392.88 240.78 394.94 248.96 C 395.96 251.51 393.74 253.50 392.28 255.28 C 389.88 257.85 387.98 261.13 384.59 262.52 C 363.10 272.09 341.46 281.32 319.93 290.79 C 316.47 292.46 312.52 291.62 308.89 291.08 C 306.93 290.89 306.24 288.74 306.04 287.10 C 305.00 279.71 302.84 272.51 302.25 265.07 C 304.92 260.43 308.26 255.54 313.41 253.40 C 329.18 245.80 345.02 238.37 360.81 230.81 C 366.07 228.49 370.89 225.09 376.53 223.69 Z" />
<path fill="#384167" opacity="1.00" d=" M 421.95 249.93 C 439.43 242.57 456.77 234.89 474.20 227.39 C 474.74 244.23 473.08 261.12 469.70 277.62 C 455.60 283.33 441.35 288.68 427.17 294.20 C 422.57 296.12 417.66 294.49 412.96 294.05 C 410.71 294.24 410.50 291.65 410.10 290.11 C 408.42 281.71 405.54 273.56 404.28 265.09 C 407.14 257.42 414.79 253.01 421.95 249.93 Z" />
<path fill="#384167" opacity="1.00" d=" M 382.99 266.94 C 385.26 266.04 387.56 264.65 390.11 265.17 C 393.33 265.60 396.77 265.48 399.69 267.08 C 401.75 276.43 404.58 285.59 406.54 294.95 C 403.26 300.26 398.60 305.17 392.70 307.60 C 372.79 315.39 352.82 323.00 332.91 330.78 C 329.10 332.20 325.12 334.33 320.97 332.90 C 318.77 332.10 314.98 332.61 314.51 329.68 C 313.04 321.18 310.96 312.77 309.99 304.19 C 313.07 300.58 315.77 296.31 319.98 293.93 C 341.09 285.19 361.91 275.78 382.99 266.94 Z" />
<path fill="#384167" opacity="1.00" d=" M 281.64 268.58 C 286.53 265.51 292.82 264.46 298.21 266.85 C 300.60 274.82 301.31 283.22 303.37 291.29 C 301.11 295.48 298.13 299.60 293.93 301.98 C 276.42 309.97 258.61 317.32 241.07 325.25 C 237.93 326.74 234.12 326.21 230.98 324.98 C 229.26 324.40 229.29 322.39 228.96 320.94 C 228.02 315.37 227.51 309.73 226.50 304.18 C 225.06 299.29 229.57 295.61 232.75 292.67 C 238.57 288.41 245.59 286.25 251.96 282.95 C 261.71 277.88 271.89 273.67 281.64 268.58 Z" />
<path fill="#384167" opacity="1.00" d=" M 427.92 297.80 C 441.50 292.65 454.99 287.24 468.63 282.26 C 464.24 301.96 457.07 320.99 447.77 338.89 C 443.93 340.29 440.04 341.72 435.98 342.28 C 432.24 342.30 428.59 341.23 424.97 340.44 C 423.71 340.24 422.68 339.26 422.49 337.99 C 420.32 328.94 417.94 319.94 415.80 310.88 C 415.17 309.18 416.80 307.92 417.74 306.76 C 420.92 303.56 423.44 299.32 427.92 297.80 Z" />
<path fill="#384167" opacity="1.00" d=" M 212.00 301.95 C 215.39 300.05 219.38 301.24 222.89 302.16 C 224.43 310.01 225.42 317.97 226.53 325.90 C 223.83 329.36 221.73 333.82 217.36 335.45 C 201.94 342.22 186.49 348.91 171.04 355.60 C 168.42 354.64 163.88 354.74 163.81 350.97 C 163.11 344.35 162.59 337.70 161.78 331.09 C 164.23 327.85 166.19 323.84 170.02 322.01 C 184.00 315.30 198.10 308.83 212.00 301.95 Z" />
<path fill="#384167" opacity="1.00" d=" M 296.47 304.51 C 299.39 304.54 302.32 305.18 305.15 305.89 C 307.19 307.55 306.83 310.55 307.49 312.88 C 308.42 319.63 310.65 326.21 310.99 333.01 C 307.97 337.01 305.10 341.82 300.07 343.48 C 281.99 350.58 263.82 357.48 245.71 364.51 C 242.99 365.67 239.98 364.48 237.34 363.61 C 234.69 362.66 234.57 359.39 234.26 357.03 C 233.88 351.31 232.62 345.71 231.99 340.02 C 231.49 337.25 233.47 334.92 235.10 332.94 C 240.08 327.58 247.33 325.57 253.81 322.68 C 268.07 316.72 282.06 310.09 296.47 304.51 Z" />
<path fill="#384167" opacity="1.00" d=" M 393.80 310.68 C 399.18 308.34 405.24 310.02 410.64 311.43 C 413.57 320.49 415.47 329.88 417.86 339.10 C 418.87 341.35 417.31 343.33 415.77 344.80 C 412.76 347.78 410.28 351.77 405.96 352.97 C 395.12 356.35 384.35 359.95 373.52 363.38 C 372.09 366.16 368.65 366.09 366.08 367.12 C 362.07 368.10 358.76 370.75 354.78 371.77 C 347.66 373.78 340.70 376.25 333.72 378.66 C 329.55 380.25 324.35 379.34 321.24 376.07 C 322.14 375.89 323.96 375.52 324.87 375.34 C 324.30 374.85 323.74 374.35 323.18 373.87 C 321.63 365.27 319.88 356.70 318.34 348.09 C 317.83 346.49 318.95 345.09 319.77 343.84 C 322.82 339.39 327.44 336.21 332.45 334.33 C 352.94 326.56 373.48 318.90 393.80 310.68 Z" />
<path fill="#384167" opacity="1.00" d=" M 149.83 331.84 C 152.81 330.50 156.15 331.19 159.18 331.96 C 159.98 338.67 160.68 345.40 161.55 352.10 C 162.08 354.93 160.14 357.39 158.37 359.36 C 154.52 363.66 148.83 365.43 143.67 367.61 C 134.01 371.46 124.68 376.14 115.00 379.92 C 112.42 380.01 107.95 379.57 108.07 376.06 C 107.57 370.04 107.28 364.00 106.76 357.98 C 107.82 354.21 110.37 350.70 113.98 349.03 C 125.85 343.15 137.80 337.41 149.83 331.84 Z" />
<path fill="#384167" opacity="1.00" d=" M 218.07 338.18 C 220.97 336.66 224.32 337.72 227.13 338.89 C 229.33 340.09 229.02 342.98 229.48 345.10 C 230.11 351.44 231.85 357.69 231.86 364.08 C 229.60 368.25 226.51 372.34 221.78 373.82 C 208.14 379.22 194.41 384.40 180.76 389.79 C 178.88 390.48 176.99 391.35 174.96 391.51 C 172.48 391.37 170.28 390.09 168.12 388.97 C 167.52 381.28 166.35 373.65 165.73 365.96 C 168.01 362.57 170.19 358.70 174.18 357.11 C 188.81 350.79 203.39 344.37 218.07 338.18 Z" />
<path fill="#384167" opacity="1.00" d=" M 435.99 348.06 C 438.37 345.61 441.83 344.92 444.96 343.92 C 440.52 351.84 435.80 359.67 430.25 366.88 C 429.37 363.44 427.64 359.90 428.35 356.29 C 430.48 353.20 433.35 350.70 435.99 348.06 Z" />
<path fill="#384167" opacity="1.00" d=" M 294.08 349.13 C 297.44 347.94 300.65 346.27 304.16 345.57 C 307.27 345.61 310.40 346.41 313.24 347.65 C 314.50 348.18 314.41 349.81 314.84 350.90 C 316.67 358.90 318.00 367.00 319.67 375.04 C 316.92 378.77 314.64 383.07 310.56 385.56 C 306.80 387.83 302.57 389.89 298.06 389.62 C 293.45 390.60 288.93 392.14 284.47 393.69 C 274.94 398.56 264.31 400.58 254.38 404.45 C 249.40 406.63 241.75 404.81 240.38 399.00 C 239.91 391.93 238.75 384.95 237.71 377.96 C 238.90 371.92 244.60 368.12 249.96 365.98 C 264.70 360.46 279.42 354.86 294.08 349.13 Z" />
<path fill="#384167" opacity="1.00" d=" M 399.94 358.92 C 404.51 357.59 409.16 354.85 414.03 356.39 C 416.93 357.26 420.33 357.28 422.76 359.22 C 424.36 363.37 425.14 367.79 426.20 372.11 C 416.34 385.73 404.27 397.62 391.53 408.54 C 389.70 410.18 387.16 410.48 384.90 411.17 C 376.51 413.35 368.33 416.37 359.75 417.73 C 353.30 420.32 346.49 421.78 339.77 423.48 C 336.77 423.36 333.64 422.55 331.11 420.91 C 327.59 418.41 330.81 413.14 327.47 410.59 C 324.70 405.46 325.90 399.39 323.97 394.00 C 322.53 391.45 324.56 389.05 326.19 387.23 C 329.95 382.84 335.59 380.87 340.95 379.19 C 350.96 376.23 360.79 372.70 370.69 369.41 C 380.04 364.89 390.19 362.40 399.94 358.92 Z" />
<path fill="#384167" opacity="1.00" d=" M 95.74 357.62 C 98.43 356.28 102.14 356.29 104.38 358.49 C 105.13 363.94 105.21 369.48 105.93 374.94 C 106.99 380.55 102.52 385.47 97.75 387.66 C 92.26 390.20 86.64 392.47 81.04 394.76 C 74.64 388.14 68.22 381.46 62.73 374.07 C 67.83 370.37 73.83 368.33 79.42 365.53 C 84.86 362.89 90.22 360.09 95.74 357.62 Z" />
<path fill="#384167" opacity="1.00" d=" M 153.84 365.84 C 157.22 364.53 163.35 365.27 163.46 369.88 C 164.07 376.58 164.81 383.26 165.57 389.94 C 162.97 392.81 161.05 396.51 157.74 398.63 C 145.53 403.51 133.21 408.13 120.99 412.97 C 117.72 414.37 113.95 413.93 111.00 412.01 C 110.48 404.71 109.44 397.42 109.57 390.09 C 111.21 384.93 116.25 381.98 120.94 379.97 C 131.99 375.44 142.95 370.73 153.84 365.84 Z" />
<path fill="#384167" opacity="1.00" d=" M 223.28 376.31 C 227.67 374.61 234.85 376.39 234.99 382.00 C 235.68 389.05 236.99 396.02 238.01 403.02 C 235.68 409.40 229.35 413.25 223.06 414.98 C 215.73 416.94 208.50 419.33 201.53 422.35 C 195.20 424.33 188.87 426.29 182.62 428.48 C 178.59 429.78 171.90 428.14 171.86 423.02 C 171.41 416.65 170.55 410.33 169.96 403.98 C 169.60 401.01 172.02 398.84 173.90 396.93 C 176.93 393.84 181.14 392.45 185.05 390.87 C 197.91 386.32 210.53 381.15 223.28 376.31 Z" />
<path fill="#384167" opacity="1.00" d=" M 99.58 389.48 C 102.03 388.38 104.95 389.48 106.81 391.22 C 108.04 396.72 107.57 402.45 108.46 408.02 C 108.68 410.67 108.90 414.97 105.95 416.03 C 97.82 410.17 90.13 403.62 83.02 396.55 C 88.47 394.03 94.02 391.74 99.58 389.48 Z" />
<path fill="#384167" opacity="1.00" d=" M 297.01 393.52 C 301.56 392.72 305.75 390.75 310.15 389.44 C 315.12 389.01 319.94 392.31 321.46 397.04 C 322.20 401.89 322.54 406.79 323.51 411.61 C 324.10 411.73 325.27 411.97 325.85 412.09 C 325.30 415.29 327.34 418.40 326.44 421.55 C 323.22 427.83 316.43 431.32 309.68 432.41 C 292.83 437.57 275.92 442.56 258.90 447.17 C 256.19 448.07 253.41 446.91 250.83 446.12 C 248.54 445.44 246.56 443.43 246.74 440.90 C 246.34 433.86 244.64 426.98 243.93 419.98 C 243.21 416.43 245.88 413.52 248.31 411.36 C 253.66 406.81 260.71 405.40 267.20 403.28 C 277.20 400.20 286.97 396.42 297.01 393.52 Z" />
<path fill="#384167" opacity="1.00" d=" M 157.87 401.54 C 160.37 400.54 163.23 401.29 165.53 402.50 C 167.73 403.81 167.25 406.72 167.64 408.88 C 168.09 415.21 169.53 421.52 169.23 427.88 C 167.64 430.33 165.88 432.73 163.74 434.74 C 158.32 437.20 152.40 438.33 146.82 440.41 C 135.09 435.38 124.18 428.70 113.53 421.71 C 115.30 418.38 118.61 416.31 122.06 415.05 C 134.02 410.61 145.90 405.96 157.87 401.54 Z" />
<path fill="#384167" opacity="1.00" d=" M 228.93 415.90 C 231.92 414.58 235.07 416.09 237.91 417.09 C 240.22 418.01 240.89 420.75 241.13 422.97 C 241.73 429.34 242.83 435.65 243.93 441.96 C 244.91 446.25 241.23 449.79 238.06 452.09 C 233.88 455.34 228.51 455.92 223.58 457.35 C 219.55 458.17 215.67 460.43 211.46 459.79 C 199.18 458.14 187.16 455.04 175.29 451.58 C 174.74 447.75 174.37 443.91 173.95 440.07 C 176.19 436.79 178.44 432.97 182.42 431.62 C 197.95 426.44 213.43 421.13 228.93 415.90 Z" />
<path fill="#384167" opacity="1.00" d=" M 356.43 422.63 C 364.90 421.00 373.16 418.53 381.42 416.07 C 375.57 421.57 368.18 425.02 361.77 429.78 C 358.10 432.18 355.40 436.03 351.06 437.35 C 346.58 439.02 342.33 441.20 338.01 443.20 C 333.74 444.07 334.78 438.83 332.54 436.92 C 333.10 433.30 336.14 430.93 338.76 428.71 C 343.88 424.90 350.48 424.37 356.43 422.63 Z" />
<path fill="#384167" opacity="1.00" d=" M 304.08 438.00 C 309.17 435.86 314.42 433.94 319.90 433.13 C 322.50 433.49 325.06 434.32 327.33 435.64 C 328.03 437.17 328.50 438.83 329.53 440.20 C 328.17 442.26 327.36 444.66 325.85 446.60 C 321.48 449.66 315.56 449.05 311.23 452.19 C 291.22 457.60 270.67 461.61 249.86 461.72 C 250.79 455.52 256.96 451.57 262.42 449.55 C 276.43 446.18 290.14 441.65 304.08 438.00 Z" />
<path fill="#384167" opacity="1.00" d=" M 150.70 442.18 C 156.53 440.75 162.66 436.15 168.64 439.48 C 172.58 441.57 171.84 446.74 172.28 450.47 C 164.91 448.26 157.63 445.52 150.70 442.18 Z" />
<path fill="#384167" opacity="1.00" d=" M 222.95 461.15 C 227.52 459.48 232.22 458.07 236.99 457.14 C 240.50 457.62 245.10 458.52 246.57 462.18 C 238.68 462.28 230.81 461.72 222.95 461.15 Z" />
</g>
</svg>
